<svg width="133" height="31" viewBox="0 0 133 31" fill="none" xmlns="http://www.w3.org/2000/svg">
<mask id="mask0_43_658" style="mask-type:luminance" maskUnits="userSpaceOnUse" x="0" y="8" width="14" height="15">
<path d="M8.82405 9.71524C6.95331 8.81451 2.58827 7.56736 0.871501 11.1241C-0.552721 14.0726 -0.460339 20.1698 2.9193 21.8019C6.13727 23.357 11.0104 19.9773 12.5578 16.7594C14.3054 13.1565 10.7025 10.6237 8.82405 9.71524Z" fill="white"/>
</mask>
<g mask="url(#mask0_43_658)">
<path d="M14.3054 7.56714H-0.552734V23.3568H14.3054V7.56714Z" fill="url(#paint0_linear_43_658)"/>
</g>
<mask id="mask1_43_658" style="mask-type:luminance" maskUnits="userSpaceOnUse" x="0" y="8" width="8" height="13">
<path d="M4.42051 8.7605C3.01169 8.86828 1.66445 9.48416 0.871505 11.1162C-0.298666 13.5336 -0.444938 18.0603 1.395 20.5161C4.77464 20.3852 7.48451 17.5984 7.48451 14.1879C7.48451 11.8861 6.25275 9.87678 4.42051 8.7605Z" fill="white"/>
</mask>
<g mask="url(#mask1_43_658)">
<path d="M7.48414 8.7605H-0.445312V20.5161H7.48414V8.7605Z" fill="url(#paint1_linear_43_658)"/>
</g>
<path fill-rule="evenodd" clip-rule="evenodd" d="M5.42881 15.5968C5.20556 15.6738 4.9746 15.9278 4.85142 16.2665C4.78214 16.4513 4.65126 16.9055 4.91301 16.9979C5.16706 17.0903 5.36722 16.6669 5.43651 16.4821C5.55969 16.1434 5.55199 15.8046 5.42881 15.5968ZM7.44582 16.4051C7.23026 16.4821 7.0224 16.7131 6.90692 17.0287C6.84534 17.1981 6.72216 17.6292 6.96081 17.7139C7.19947 17.8062 7.38423 17.3982 7.45352 17.2289C7.56899 16.9209 7.5536 16.6053 7.44582 16.4051ZM10.0248 14.7422C9.80156 14.8269 9.5706 15.0733 9.44743 15.412C9.37814 15.5968 9.24727 16.051 9.50901 16.1434C9.76306 16.2358 9.96323 15.8123 10.0325 15.6276C10.1557 15.2888 10.1403 14.9501 10.0248 14.7422ZM7.39963 13.7645C7.17637 13.8492 6.94542 14.0956 6.82224 14.4343C6.75295 14.6191 6.62208 15.0733 6.88383 15.1657C7.13788 15.258 7.33804 14.8346 7.40733 14.6499C7.5305 14.3034 7.5228 13.9724 7.39963 13.7645ZM4.78214 12.7791C4.55888 12.8561 4.32793 13.1102 4.20475 13.4489C4.13546 13.6337 4.00459 14.0879 4.26634 14.1803C4.52039 14.2726 4.72055 13.8492 4.78984 13.6645C4.90531 13.3257 4.89762 12.987 4.78214 12.7791ZM2.68045 12.1017C2.45719 12.1786 2.22624 12.4327 2.10306 12.7714C2.03377 12.9562 1.9029 13.4104 2.16465 13.5028C2.4187 13.5952 2.61886 13.1718 2.68815 12.987C2.81132 12.6483 2.80362 12.3095 2.68045 12.1017ZM4.42031 10.4927C4.22785 10.562 4.03538 10.7775 3.92761 11.0701C3.86602 11.2317 3.75824 11.6167 3.98149 11.7013C4.20475 11.786 4.37412 11.4165 4.42801 11.2548C4.52809 10.9623 4.52039 10.6697 4.42031 10.4927ZM7.33034 11.3857C7.09939 11.4319 6.83764 11.6398 6.66057 11.9477C6.56819 12.1171 6.36803 12.5405 6.60668 12.679C6.84534 12.8099 7.10708 12.425 7.19947 12.2479C7.37653 11.94 7.41502 11.609 7.33034 11.3857ZM9.62449 12.4943C9.43973 12.5636 9.25496 12.7637 9.15488 13.0332C9.10099 13.1794 8.99322 13.549 9.20107 13.626C9.40893 13.7029 9.5706 13.3565 9.62449 13.2025C9.73227 12.9408 9.72457 12.6637 9.62449 12.4943ZM2.54188 17.6292C2.33402 17.7062 2.12616 17.9294 2.01068 18.2451C1.94909 18.4144 1.83361 18.8301 2.06457 18.9148C2.30322 18.9995 2.48029 18.6069 2.54188 18.4375C2.66505 18.1296 2.64965 17.8216 2.54188 17.6292ZM4.4896 19.115C4.28174 19.192 4.07388 19.4152 3.9584 19.7309C3.89681 19.9002 3.77364 20.316 4.01229 20.4006C4.25094 20.4853 4.42801 20.0927 4.4896 19.9233C4.60507 19.6154 4.59737 19.3075 4.4896 19.115ZM3.13466 14.9424C2.9268 15.0194 2.71894 15.2426 2.60346 15.5583C2.54188 15.7277 2.4187 16.1434 2.65735 16.2281C2.89601 16.3127 3.07307 15.9201 3.13466 15.7507C3.25014 15.4428 3.24244 15.1349 3.13466 14.9424Z" fill="#E60000"/>
<mask id="mask2_43_658" style="mask-type:luminance" maskUnits="userSpaceOnUse" x="6" y="0" width="15" height="13">
<path d="M6.74512 0.846834C8.58506 2.32495 10.5251 4.31116 11.7799 6.38205C13.4505 9.26129 12.9116 12.2868 12.9116 12.2868C13.9278 8.79938 16.5145 8.38366 18.493 6.21269C19.6555 4.93473 20.5254 3.11789 20.4946 0.546593C20.1328 0.115477 13.7354 0.0769844 12.8346 5.53522C12.0648 3.96472 10.8253 1.93232 8.92379 0C8.17704 0.215558 7.44568 0.500402 6.74512 0.846834Z" fill="white"/>
</mask>
<g mask="url(#mask2_43_658)">
<path d="M13.6351 19.1767L26.6687 6.14317L13.6351 -6.89038L0.601562 6.14317L13.6351 19.1767Z" fill="url(#paint2_linear_43_658)"/>
</g>
<mask id="mask3_43_658" style="mask-type:luminance" maskUnits="userSpaceOnUse" x="12" y="0" width="9" height="13">
<path d="M12.9506 10.1232C13.0738 11.3935 12.9121 12.2865 12.9121 12.2865C13.9283 8.7991 16.515 8.38338 18.4935 6.2124C19.5867 5.00374 20.4258 3.31777 20.4874 0.969727C20.1256 1.87815 19.4789 2.91745 18.3319 3.74119C15.7144 5.61192 13.0969 7.85218 12.9506 10.1232Z" fill="white"/>
</mask>
<g mask="url(#mask3_43_658)">
<path d="M16.7 16.074L26.146 6.62794L16.7 -2.81812L7.25391 6.62794L16.7 16.074Z" fill="url(#paint3_linear_43_658)"/>
</g>
<mask id="mask4_43_658" style="mask-type:luminance" maskUnits="userSpaceOnUse" x="4" y="3" width="9" height="9">
<path d="M4.0127 3.20989C4.0127 3.20989 4.12047 7.37478 7.96202 8.61423C10.1022 9.47647 11.6111 10.5004 12.3656 11.5782C11.8652 6.81279 9.75577 3.01743 4.0127 3.20989Z" fill="white"/>
</mask>
<g mask="url(#mask4_43_658)">
<path d="M12.3656 3.01733H4.0127V11.5858H12.3656V3.01733Z" fill="url(#paint4_linear_43_658)"/>
</g>
<mask id="mask5_43_658" style="mask-type:luminance" maskUnits="userSpaceOnUse" x="4" y="3" width="9" height="9">
<path d="M4.0127 3.20989C4.0127 3.20989 4.02809 3.75648 4.22825 4.50324C4.22825 4.50324 10.8951 4.46474 12.3656 11.5782C11.8652 6.81279 9.75577 3.01743 4.0127 3.20989Z" fill="white"/>
</mask>
<g mask="url(#mask5_43_658)">
<path d="M14.514 3.58702L4.57522 0.92334L1.87305 11.0084L11.8118 13.672L14.514 3.58702Z" fill="url(#paint5_linear_43_658)"/>
</g>
<mask id="mask6_43_658" style="mask-type:luminance" maskUnits="userSpaceOnUse" x="5" y="15" width="16" height="16">
<path d="M12.8951 15.4895C16.9137 15.4895 20.1779 18.746 20.1779 22.7723C20.1779 26.7909 16.9214 30.0551 12.8951 30.0551C8.87647 30.0551 5.6123 26.7986 5.6123 22.7723C5.6123 18.746 8.86877 15.4895 12.8951 15.4895Z" fill="white"/>
</mask>
<g mask="url(#mask6_43_658)">
<path d="M20.1779 15.4895H5.6123V30.0551H20.1779V15.4895Z" fill="url(#paint6_linear_43_658)"/>
</g>
<mask id="mask7_43_658" style="mask-type:luminance" maskUnits="userSpaceOnUse" x="10" y="15" width="11" height="16">
<path d="M14.3221 15.6272C17.6633 16.2893 20.173 19.2378 20.173 22.7714C20.173 26.79 16.9165 30.0542 12.8902 30.0542C12.0973 30.0542 11.3351 29.9233 10.6191 29.6923C15.2921 30.0465 19.0798 20.5696 14.3221 15.6272Z" fill="white"/>
</mask>
<g mask="url(#mask7_43_658)">
<path d="M20.173 15.6272H10.6191V30.0465H20.173V15.6272Z" fill="url(#paint7_linear_43_658)"/>
</g>
<mask id="mask8_43_658" style="mask-type:luminance" maskUnits="userSpaceOnUse" x="5" y="15" width="9" height="13">
<path d="M7.6832 27.8609C6.39755 26.5521 5.6123 24.7507 5.6123 22.7721C5.6123 19.2 8.1836 16.2284 11.5786 15.6125C12.7488 16.9367 13.4648 18.6689 13.4648 20.5781C13.4648 24.1194 11.0013 27.091 7.6832 27.8609Z" fill="white"/>
</mask>
<g mask="url(#mask8_43_658)">
<path d="M13.4648 15.6047H5.6123V27.853H13.4648V15.6047Z" fill="url(#paint8_linear_43_658)"/>
</g>
<path fill-rule="evenodd" clip-rule="evenodd" d="M12.6041 28.8074C9.78641 28.0298 7.70782 25.4508 7.70782 22.3791C7.70782 21.8402 7.76941 21.3167 7.89258 20.8163C8.18513 19.5846 8.8241 18.4914 9.69403 17.6292C8.45458 18.4067 7.50766 19.6154 7.08424 21.055C6.92257 21.5939 6.83789 22.1713 6.83789 22.764C6.84559 26.0128 9.40149 28.6611 12.6041 28.8074Z" fill="white"/>
<mask id="mask9_43_658" style="mask-type:luminance" maskUnits="userSpaceOnUse" x="13" y="7" width="15" height="22">
<path d="M25.8684 22.818C24.7521 25.4894 21.9267 29.9083 18.2854 28.1685C16.3376 27.237 16.9612 25.3585 16.4916 23.6495C15.1752 18.8379 12.6039 17.0365 13.928 12.4943C16.5917 3.40242 32.0272 8.1062 25.8684 22.818Z" fill="white"/>
</mask>
<g mask="url(#mask9_43_658)">
<path d="M32.0268 3.40234H12.6035V29.9083H32.0268V3.40234Z" fill="url(#paint9_linear_43_658)"/>
</g>
<mask id="mask10_43_658" style="mask-type:luminance" maskUnits="userSpaceOnUse" x="17" y="14" width="11" height="15">
<path d="M25.8694 22.8178C24.7531 25.4892 21.9277 29.9081 18.2863 28.1683C18.1709 28.1144 18.0708 28.0528 17.9707 27.9912C20.95 28.0451 28.0557 21.3243 27.078 14.1262C27.5707 16.4358 27.3244 19.3458 25.8694 22.8178Z" fill="white"/>
</mask>
<g mask="url(#mask10_43_658)">
<path d="M28.0479 14.1262H17.9629V29.9081H28.0479V14.1262Z" fill="url(#paint10_linear_43_658)"/>
</g>
<mask id="mask11_43_658" style="mask-type:luminance" maskUnits="userSpaceOnUse" x="13" y="7" width="10" height="14">
<path d="M15.5464 20.9705C14.2684 17.9603 12.875 16.0819 13.9297 12.4867C14.9998 8.82993 18.1408 7.4057 21.1124 7.97539C21.7668 9.23025 22.1286 10.6622 22.1286 12.1788C22.1363 16.3437 19.3571 19.8619 15.5464 20.9705Z" fill="white"/>
</mask>
<g mask="url(#mask11_43_658)">
<path d="M22.1354 7.40576H12.8818V20.9705H22.1354V7.40576Z" fill="url(#paint11_linear_43_658)"/>
</g>
<path fill-rule="evenodd" clip-rule="evenodd" d="M17.7311 22.0175C17.7311 22.0175 14.6979 18.276 14.9827 14.1881C15.1829 11.3551 17.454 11.0471 16.5224 14.3652C16.0605 16.005 16.5378 18.6224 17.7311 22.0175Z" fill="white"/>
<path d="M46.5353 8.51862V10.6625H40.1136V14.9504H45.5335V17.1043H40.1136V23.0051H37.3986V8.51862H46.5353ZM47.9028 23.0051V12.7263H49.3555C49.6093 12.7263 49.7863 12.7731 49.8865 12.8666C49.9867 12.9601 50.0534 13.1204 50.0868 13.3475L50.2371 14.5897C50.6044 13.9552 51.0352 13.4543 51.5295 13.087C52.0237 12.7196 52.5781 12.536 53.1925 12.536C53.7001 12.536 54.1209 12.6529 54.4548 12.8866L54.1342 14.74C54.1142 14.8602 54.0708 14.947 54.004 15.0005C53.9372 15.0472 53.847 15.0706 53.7335 15.0706C53.6333 15.0706 53.4964 15.0472 53.3228 15.0005C53.1491 14.9537 52.9187 14.9304 52.6315 14.9304C52.1172 14.9304 51.6764 15.0739 51.3091 15.3611C50.9417 15.6417 50.6312 16.0557 50.3774 16.6034V23.0051H47.9028ZM58.346 12.7263V19.2583C58.346 19.8861 58.4896 20.3736 58.7768 20.7209C59.0707 21.0616 59.5081 21.2319 60.0892 21.2319C60.5166 21.2319 60.9174 21.1384 61.2914 20.9514C61.6654 20.7577 62.0194 20.4939 62.3533 20.1599V12.7263H64.8279V23.0051H63.3151C62.9945 23.0051 62.7841 22.8549 62.6839 22.5543L62.5136 21.7328C62.2999 21.9465 62.0795 22.1436 61.8524 22.3239C61.6253 22.4975 61.3816 22.6478 61.1211 22.7747C60.8673 22.8949 60.5901 22.9884 60.2896 23.0552C59.9957 23.1287 59.6784 23.1654 59.3378 23.1654C58.7768 23.1654 58.2792 23.0719 57.8451 22.8849C57.4176 22.6912 57.057 22.4207 56.7631 22.0734C56.4692 21.7261 56.2455 21.3154 56.0919 20.8412C55.9449 20.3603 55.8715 19.8327 55.8715 19.2583V12.7263H58.346ZM70.1047 12.7263V23.0051H67.6302V12.7263H70.1047ZM70.4754 9.73084C70.4754 9.94456 70.432 10.1449 70.3452 10.3319C70.2583 10.5189 70.1414 10.6826 69.9945 10.8228C69.8543 10.9631 69.6873 11.0766 69.4936 11.1635C69.2999 11.2436 69.0929 11.2837 68.8725 11.2837C68.6587 11.2837 68.455 11.2436 68.2613 11.1635C68.0743 11.0766 67.9107 10.9631 67.7704 10.8228C67.6302 10.6826 67.5166 10.5189 67.4298 10.3319C67.3497 10.1449 67.3096 9.94456 67.3096 9.73084C67.3096 9.51044 67.3497 9.30339 67.4298 9.1097C67.5166 8.91601 67.6302 8.74904 67.7704 8.60879C67.9107 8.46853 68.0743 8.35833 68.2613 8.27818C68.455 8.19136 68.6587 8.14794 68.8725 8.14794C69.0929 8.14794 69.2999 8.19136 69.4936 8.27818C69.6873 8.35833 69.8543 8.46853 69.9945 8.60879C70.1414 8.74904 70.2583 8.91601 70.3452 9.1097C70.432 9.30339 70.4754 9.51044 70.4754 9.73084ZM76.2857 23.1654C75.3974 23.1654 74.7128 22.915 74.232 22.414C73.7511 21.9064 73.5106 21.2085 73.5106 20.3202V14.5797H72.4687C72.3351 14.5797 72.2183 14.5363 72.1181 14.4495C72.0246 14.3626 71.9778 14.2324 71.9778 14.0588V13.077L73.6309 12.8065L74.1518 10.0013C74.1785 9.86776 74.2386 9.76423 74.3321 9.69076C74.4323 9.6173 74.5559 9.58056 74.7028 9.58056H75.9852V12.8165H78.6901V14.5797H75.9852V20.1499C75.9852 20.4705 76.0653 20.7209 76.2256 20.9013C76.3859 21.0816 76.5996 21.1718 76.8668 21.1718C77.0204 21.1718 77.1473 21.1551 77.2475 21.1217C77.3543 21.0816 77.4445 21.0415 77.518 21.0015C77.5981 20.9614 77.6682 20.9247 77.7283 20.8913C77.7885 20.8512 77.8486 20.8311 77.9087 20.8311C77.9821 20.8311 78.0423 20.8512 78.089 20.8913C78.1358 20.9247 78.1859 20.9781 78.2393 21.0516L78.9806 22.2538C78.62 22.5543 78.2059 22.7814 77.7384 22.935C77.2708 23.0886 76.7866 23.1654 76.2857 23.1654ZM84.6726 23.0051V8.51862H89.6718C90.6202 8.51862 91.4283 8.60879 92.0962 8.78912C92.7708 8.96945 93.3218 9.22658 93.7492 9.56053C94.1834 9.89447 94.5006 10.2985 94.701 10.7727C94.9013 11.2469 95.0015 11.7813 95.0015 12.3757C95.0015 12.7163 94.9514 13.0436 94.8512 13.3575C94.7511 13.6647 94.5941 13.9552 94.3804 14.2291C94.1733 14.4962 93.9062 14.74 93.5789 14.9604C93.2583 15.1808 92.8743 15.3678 92.4268 15.5214C94.4171 15.9689 95.4123 17.0442 95.4123 18.7473C95.4123 19.3618 95.2954 19.9295 95.0616 20.4505C94.8279 20.9714 94.4872 21.4222 94.0398 21.8029C93.5923 22.1769 93.0413 22.4708 92.3867 22.6845C91.7322 22.8983 90.9842 23.0051 90.1426 23.0051H84.6726ZM87.3675 16.6535V20.9013H90.1026C90.6035 20.9013 91.0209 20.8412 91.3548 20.7209C91.6955 20.6007 91.966 20.4404 92.1663 20.2401C92.3734 20.0397 92.5203 19.8059 92.6071 19.5388C92.7006 19.2716 92.7474 18.9878 92.7474 18.6872C92.7474 18.3733 92.6973 18.0928 92.5971 17.8457C92.4969 17.5919 92.34 17.3782 92.1263 17.2045C91.9125 17.0242 91.6387 16.8873 91.3048 16.7938C90.9708 16.7003 90.5667 16.6535 90.0925 16.6535H87.3675ZM87.3675 14.7901H89.5215C90.4365 14.7901 91.1311 14.6231 91.6053 14.2892C92.0795 13.9552 92.3166 13.4243 92.3166 12.6963C92.3166 11.9415 92.1029 11.4039 91.6754 11.0833C91.248 10.7627 90.5801 10.6024 89.6718 10.6024H87.3675V14.7901ZM99.8477 12.7263V19.2583C99.8477 19.8861 99.9913 20.3736 100.279 20.7209C100.572 21.0616 101.01 21.2319 101.591 21.2319C102.018 21.2319 102.419 21.1384 102.793 20.9514C103.167 20.7577 103.521 20.4939 103.855 20.1599V12.7263H106.33V23.0051H104.817C104.496 23.0051 104.286 22.8549 104.186 22.5543L104.015 21.7328C103.802 21.9465 103.581 22.1436 103.354 22.3239C103.127 22.4975 102.883 22.6478 102.623 22.7747C102.369 22.8949 102.092 22.9884 101.791 23.0552C101.497 23.1287 101.18 23.1654 100.84 23.1654C100.279 23.1654 99.7809 23.0719 99.3468 22.8849C98.9194 22.6912 98.5587 22.4207 98.2648 22.0734C97.971 21.7261 97.7472 21.3154 97.5936 20.8412C97.4467 20.3603 97.3732 19.8327 97.3732 19.2583V12.7263H99.8477ZM108.972 23.0051V12.7263H110.424C110.678 12.7263 110.855 12.7731 110.955 12.8666C111.055 12.9601 111.122 13.1204 111.156 13.3475L111.306 14.5897C111.673 13.9552 112.104 13.4543 112.598 13.087C113.092 12.7196 113.647 12.536 114.261 12.536C114.769 12.536 115.19 12.6529 115.524 12.8866L115.203 14.74C115.183 14.8602 115.14 14.947 115.073 15.0005C115.006 15.0472 114.916 15.0706 114.802 15.0706C114.702 15.0706 114.565 15.0472 114.392 15.0005C114.218 14.9537 113.987 14.9304 113.7 14.9304C113.186 14.9304 112.745 15.0739 112.378 15.3611C112.01 15.6417 111.7 16.0557 111.446 16.6034V23.0051H108.972ZM123.252 14.73C123.185 14.8368 123.115 14.9137 123.041 14.9604C122.968 15.0005 122.874 15.0205 122.761 15.0205C122.641 15.0205 122.51 14.9871 122.37 14.9203C122.237 14.8535 122.08 14.7801 121.899 14.6999C121.719 14.6131 121.512 14.5363 121.278 14.4695C121.051 14.4027 120.781 14.3693 120.467 14.3693C119.979 14.3693 119.595 14.4728 119.315 14.6799C119.034 14.8869 118.894 15.1574 118.894 15.4914C118.894 15.7118 118.964 15.8988 119.104 16.0524C119.251 16.1993 119.441 16.3296 119.675 16.4431C119.916 16.5567 120.186 16.6602 120.487 16.7537C120.787 16.8405 121.095 16.9374 121.408 17.0442C121.722 17.1511 122.03 17.2746 122.33 17.4149C122.631 17.5485 122.898 17.7221 123.132 17.9359C123.372 18.1429 123.562 18.3934 123.703 18.6872C123.85 18.9811 123.923 19.3351 123.923 19.7492C123.923 20.2434 123.833 20.7009 123.653 21.1217C123.472 21.5358 123.208 21.8964 122.861 22.2037C122.514 22.5042 122.083 22.7413 121.569 22.915C121.061 23.0819 120.477 23.1654 119.816 23.1654C119.462 23.1654 119.114 23.132 118.774 23.0652C118.44 23.0051 118.116 22.9183 117.802 22.8048C117.495 22.6912 117.207 22.5576 116.94 22.404C116.68 22.2504 116.449 22.0834 116.249 21.9031L116.82 20.9614C116.893 20.8478 116.98 20.761 117.081 20.7009C117.181 20.6408 117.308 20.6107 117.461 20.6107C117.615 20.6107 117.758 20.6542 117.892 20.741C118.032 20.8278 118.193 20.9213 118.373 21.0215C118.553 21.1217 118.764 21.2152 119.004 21.302C119.251 21.3888 119.562 21.4322 119.936 21.4322C120.23 21.4322 120.48 21.3989 120.687 21.3321C120.901 21.2586 121.074 21.1651 121.208 21.0516C121.348 20.938 121.449 20.8078 121.509 20.6608C121.575 20.5072 121.609 20.3503 121.609 20.19C121.609 19.9495 121.535 19.7525 121.388 19.5989C121.248 19.4453 121.058 19.3117 120.817 19.1982C120.584 19.0846 120.313 18.9844 120.006 18.8976C119.705 18.8041 119.395 18.7039 119.074 18.5971C118.76 18.4902 118.45 18.3666 118.142 18.2264C117.842 18.0794 117.571 17.8958 117.331 17.6754C117.097 17.455 116.907 17.1845 116.76 16.8639C116.62 16.5433 116.55 16.1559 116.55 15.7018C116.55 15.281 116.633 14.8803 116.8 14.4996C116.967 14.1189 117.211 13.7883 117.531 13.5077C117.859 13.2206 118.263 12.9935 118.744 12.8265C119.231 12.6529 119.792 12.566 120.427 12.566C121.135 12.566 121.779 12.6829 122.36 12.9167C122.941 13.1504 123.425 13.4577 123.813 13.8384L123.252 14.73ZM129.273 23.1654C128.385 23.1654 127.7 22.915 127.22 22.414C126.739 21.9064 126.498 21.2085 126.498 20.3202V14.5797H125.456C125.323 14.5797 125.206 14.5363 125.106 14.4495C125.012 14.3626 124.965 14.2324 124.965 14.0588V13.077L126.618 12.8065L127.139 10.0013C127.166 9.86776 127.226 9.76423 127.32 9.69076C127.42 9.6173 127.543 9.58056 127.69 9.58056H128.973V12.8165H131.678V14.5797H128.973V20.1499C128.973 20.4705 129.053 20.7209 129.213 20.9013C129.373 21.0816 129.587 21.1718 129.854 21.1718C130.008 21.1718 130.135 21.1551 130.235 21.1217C130.342 21.0816 130.432 21.0415 130.506 21.0015C130.586 20.9614 130.656 20.9247 130.716 20.8913C130.776 20.8512 130.836 20.8311 130.896 20.8311C130.97 20.8311 131.03 20.8512 131.077 20.8913C131.123 20.9247 131.173 20.9781 131.227 21.0516L131.968 22.2538C131.608 22.5543 131.193 22.7814 130.726 22.935C130.258 23.0886 129.774 23.1654 129.273 23.1654Z" fill="#121212"/>
<defs>
<linearGradient id="paint0_linear_43_658" x1="10.8661" y1="15.4633" x2="-1.49424" y2="15.4633" gradientUnits="userSpaceOnUse">
<stop stop-color="#FF0000"/>
<stop offset="1" stop-color="#F38288"/>
</linearGradient>
<linearGradient id="paint1_linear_43_658" x1="10.8963" y1="14.6421" x2="1.07933" y2="14.6421" gradientUnits="userSpaceOnUse">
<stop stop-color="#FF0000"/>
<stop offset="1" stop-color="#F38288"/>
</linearGradient>
<linearGradient id="paint2_linear_43_658" x1="12.7928" y1="6.98747" x2="21.0112" y2="-1.23096" gradientUnits="userSpaceOnUse">
<stop stop-color="#4BBC39"/>
<stop offset="1" stop-color="#BEDE19"/>
</linearGradient>
<linearGradient id="paint3_linear_43_658" x1="13.685" y1="9.64618" x2="21.9865" y2="1.34465" gradientUnits="userSpaceOnUse">
<stop stop-color="#3AA34E"/>
<stop offset="1" stop-color="#BEDE19"/>
</linearGradient>
<linearGradient id="paint4_linear_43_658" x1="10.2045" y1="7.29825" x2="1.77997" y2="7.29825" gradientUnits="userSpaceOnUse">
<stop stop-color="#4BBC39"/>
<stop offset="1" stop-color="#BEDE19"/>
</linearGradient>
<linearGradient id="paint5_linear_43_658" x1="12.1536" y1="8.35988" x2="2.16" y2="5.68214" gradientUnits="userSpaceOnUse">
<stop stop-color="#3AA34E"/>
<stop offset="1" stop-color="#BEDE19"/>
</linearGradient>
<linearGradient id="paint6_linear_43_658" x1="6.28159" y1="22.7696" x2="16.9189" y2="22.7696" gradientUnits="userSpaceOnUse">
<stop stop-color="#FFBE04"/>
<stop offset="1" stop-color="#FF7F00"/>
</linearGradient>
<linearGradient id="paint7_linear_43_658" x1="6.20294" y1="22.8394" x2="14.7466" y2="22.8394" gradientUnits="userSpaceOnUse">
<stop stop-color="#FFBE04"/>
<stop offset="1" stop-color="#FF7F00"/>
</linearGradient>
<linearGradient id="paint8_linear_43_658" x1="9.33837" y1="21.7341" x2="16.8188" y2="21.7341" gradientUnits="userSpaceOnUse">
<stop stop-color="#FFBE04"/>
<stop offset="1" stop-color="#FF7F00"/>
</linearGradient>
<linearGradient id="paint9_linear_43_658" x1="26.1972" y1="16.6554" x2="14.5725" y2="16.6554" gradientUnits="userSpaceOnUse">
<stop stop-color="#016737"/>
<stop offset="1" stop-color="#4BBC39"/>
</linearGradient>
<linearGradient id="paint10_linear_43_658" x1="23.9488" y1="22.0192" x2="16.074" y2="22.0192" gradientUnits="userSpaceOnUse">
<stop stop-color="#016737"/>
<stop offset="1" stop-color="#4BBC39"/>
</linearGradient>
<linearGradient id="paint11_linear_43_658" x1="26.2837" y1="14.1897" x2="15.9817" y2="14.1897" gradientUnits="userSpaceOnUse">
<stop stop-color="#016737"/>
<stop offset="1" stop-color="#4BBC39"/>
</linearGradient>
</defs>
</svg>
