<svg width="264" height="60" viewBox="0 0 264 60" fill="none" xmlns="http://www.w3.org/2000/svg">
<mask id="mask0_2_307" style="mask-type:luminance" maskUnits="userSpaceOnUse" x="0" y="17" width="26" height="28">
<path d="M17.6158 19.3957C13.8812 17.5975 5.16707 15.1078 1.73982 22.2082C-1.10341 28.0944 -0.918987 40.2665 5.82793 43.5247C12.2521 46.6292 21.9806 39.8823 25.0697 33.4582C28.5584 26.2655 21.3658 21.2092 17.6158 19.3957Z" fill="white"/>
</mask>
<g mask="url(#mask0_2_307)">
<path d="M28.5584 15.1074H-1.10341V46.6289H28.5584V15.1074Z" fill="url(#paint0_linear_2_307)"/>
</g>
<mask id="mask1_2_307" style="mask-type:luminance" maskUnits="userSpaceOnUse" x="0" y="17" width="15" height="24">
<path d="M8.82485 17.4897C6.01235 17.7049 3.32281 18.9344 1.73982 22.1926C-0.59624 27.0184 -0.888247 36.0553 2.7849 40.9579C9.53181 40.6967 14.9416 35.1331 14.9416 28.3248C14.9416 23.7295 12.4826 19.7182 8.82485 17.4897Z" fill="white"/>
</mask>
<g mask="url(#mask1_2_307)">
<path d="M14.9416 17.4897H-0.888245V40.9579H14.9416V17.4897Z" fill="url(#paint1_linear_2_307)"/>
</g>
<path fill-rule="evenodd" clip-rule="evenodd" d="M10.8382 31.1373C10.3925 31.291 9.93141 31.7981 9.68551 32.4744C9.54719 32.8432 9.28592 33.75 9.80846 33.9344C10.3156 34.1188 10.7152 33.2735 10.8535 32.9047C11.0994 32.2285 11.0841 31.5522 10.8382 31.1373ZM14.8648 32.751C14.4345 32.9047 14.0195 33.3658 13.789 33.9959C13.666 34.334 13.4201 35.1947 13.8966 35.3637C14.373 35.5481 14.7419 34.7336 14.8802 34.3955C15.1107 33.7807 15.08 33.1506 14.8648 32.751ZM20.0134 29.4313C19.5677 29.6004 19.1066 30.0922 18.8607 30.7684C18.7224 31.1373 18.4611 32.044 18.9836 32.2285C19.4908 32.4129 19.8904 31.5676 20.0287 31.1988C20.2746 30.5225 20.2439 29.8463 20.0134 29.4313ZM14.7726 27.4795C14.3269 27.6486 13.8658 28.1404 13.6199 28.8166C13.4816 29.1854 13.2203 30.0922 13.7429 30.2766C14.25 30.4611 14.6496 29.6158 14.788 29.2469C15.0339 28.5553 15.0185 27.8945 14.7726 27.4795ZM9.54719 25.5123C9.10149 25.666 8.64043 26.1732 8.39453 26.8494C8.25621 27.2182 7.99494 28.125 8.51748 28.3094C9.02465 28.4938 9.42424 27.6486 9.56256 27.2797C9.79309 26.6035 9.77772 25.9273 9.54719 25.5123ZM5.3515 24.1598C4.90581 24.3135 4.44474 24.8207 4.19884 25.4969C4.06052 25.8658 3.79925 26.7725 4.32179 26.957C4.82896 27.1414 5.22855 26.2961 5.36687 25.9273C5.61277 25.251 5.5974 24.5748 5.3515 24.1598ZM8.82485 20.9478C8.44063 21.0861 8.05641 21.5164 7.84125 22.1004C7.7183 22.4232 7.50314 23.1916 7.94883 23.3607C8.39453 23.5297 8.73264 22.792 8.84022 22.4693C9.04002 21.8853 9.02465 21.3012 8.82485 20.9478ZM14.6343 22.7305C14.1732 22.8227 13.6507 23.2377 13.2972 23.8525C13.1128 24.1906 12.7132 25.0359 13.1896 25.3125C13.666 25.5738 14.1886 24.8053 14.373 24.4518C14.7265 23.8371 14.8033 23.1762 14.6343 22.7305ZM19.2142 24.9436C18.8453 25.082 18.4765 25.4816 18.2767 26.0195C18.1691 26.3115 17.9539 27.0492 18.3689 27.2029C18.7838 27.3566 19.1066 26.665 19.2142 26.3576C19.4293 25.835 19.414 25.2818 19.2142 24.9436ZM5.07486 35.1947C4.6599 35.3483 4.24495 35.794 4.01441 36.4242C3.89146 36.7623 3.66093 37.5922 4.122 37.7612C4.59843 37.9303 4.95191 37.1465 5.07486 36.8084C5.32076 36.1936 5.29003 35.5789 5.07486 35.1947ZM8.96317 38.1608C8.54822 38.3145 8.13326 38.7602 7.90273 39.3903C7.77977 39.7285 7.53387 40.5584 8.01031 40.7274C8.48674 40.8965 8.84022 40.1127 8.96317 39.7746C9.19371 39.1598 9.17834 38.5451 8.96317 38.1608ZM6.25826 29.8309C5.8433 29.9846 5.42835 30.4303 5.19781 31.0604C5.07486 31.3986 4.82896 32.2285 5.3054 32.3975C5.78183 32.5666 6.13531 31.7828 6.25826 31.4447C6.48879 30.8299 6.47343 30.2152 6.25826 29.8309Z" fill="#E60000"/>
<mask id="mask2_2_307" style="mask-type:luminance" maskUnits="userSpaceOnUse" x="13" y="0" width="28" height="25">
<path d="M13.4662 1.69057C17.1394 4.64138 21.0123 8.60654 23.5174 12.7407C26.8525 18.4887 25.7767 24.5286 25.7767 24.5286C27.8053 17.5666 32.9693 16.7366 36.919 12.4026C39.2397 9.85141 40.9764 6.22437 40.9149 1.09119C40.1926 0.230532 27.4211 0.153687 25.623 11.0502C24.0861 7.91494 21.6117 3.85757 17.8156 0C16.3248 0.430327 14.8648 0.998973 13.4662 1.69057Z" fill="white"/>
</mask>
<g mask="url(#mask2_2_307)">
<path d="M27.2213 38.2837L53.2407 12.2643L27.2213 -13.7551L1.20189 12.2643L27.2213 38.2837Z" fill="url(#paint2_linear_2_307)"/>
</g>
<mask id="mask3_2_307" style="mask-type:luminance" maskUnits="userSpaceOnUse" x="25" y="1" width="16" height="24">
<path d="M25.8535 20.21C26.0994 22.7459 25.7766 24.5287 25.7766 24.5287C27.8053 17.5666 32.9692 16.7367 36.919 12.4027C39.1014 9.98978 40.7766 6.62401 40.8996 1.93652C40.1772 3.75004 38.8862 5.82484 36.5963 7.4693C31.3709 11.2039 26.1455 15.6762 25.8535 20.21Z" fill="white"/>
</mask>
<g mask="url(#mask3_2_307)">
<path d="M33.3381 32.0901L52.1956 13.2325L33.3381 -5.625L14.4806 13.2325L33.3381 32.0901Z" fill="url(#paint3_linear_2_307)"/>
</g>
<mask id="mask4_2_307" style="mask-type:luminance" maskUnits="userSpaceOnUse" x="8" y="6" width="17" height="18">
<path d="M8.01028 6.40877C8.01028 6.40877 8.22545 14.7233 15.8945 17.1977C20.167 18.919 23.1793 20.963 24.6855 23.1147C23.6865 13.6014 19.4754 6.02455 8.01028 6.40877Z" fill="white"/>
</mask>
<g mask="url(#mask4_2_307)">
<path d="M24.6855 6.02441H8.01028V23.1299H24.6855V6.02441Z" fill="url(#paint4_linear_2_307)"/>
</g>
<mask id="mask5_2_307" style="mask-type:luminance" maskUnits="userSpaceOnUse" x="8" y="6" width="17" height="18">
<path d="M8.01028 6.40877C8.01028 6.40877 8.04102 7.49996 8.44061 8.99073C8.44061 8.99073 21.75 8.91389 24.6855 23.1147C23.6865 13.6014 19.4754 6.02455 8.01028 6.40877Z" fill="white"/>
</mask>
<g mask="url(#mask5_2_307)">
<path d="M28.9734 7.16185L9.13222 1.84424L3.73776 21.9774L23.5789 27.295L28.9734 7.16185Z" fill="url(#paint5_linear_2_307)"/>
</g>
<mask id="mask6_2_307" style="mask-type:luminance" maskUnits="userSpaceOnUse" x="11" y="30" width="30" height="31">
<path d="M25.7459 30.9224C33.7684 30.9224 40.2848 37.4234 40.2848 45.4613C40.2848 53.4838 33.7838 60.0002 25.7459 60.0002C17.7234 60.0002 11.207 53.4992 11.207 45.4613C11.207 37.4234 17.708 30.9224 25.7459 30.9224Z" fill="white"/>
</mask>
<g mask="url(#mask6_2_307)">
<path d="M40.2848 30.9224H11.207V60.0002H40.2848V30.9224Z" fill="url(#paint6_linear_2_307)"/>
</g>
<mask id="mask7_2_307" style="mask-type:luminance" maskUnits="userSpaceOnUse" x="21" y="31" width="20" height="29">
<path d="M28.5891 31.1987C35.2592 32.5204 40.2695 38.4067 40.2695 45.461C40.2695 53.4835 33.7684 59.9999 25.7305 59.9999C24.1476 59.9999 22.626 59.7386 21.1967 59.2776C30.5256 59.9845 38.0871 41.0655 28.5891 31.1987Z" fill="white"/>
</mask>
<g mask="url(#mask7_2_307)">
<path d="M40.2695 31.1987H21.1967V59.9845H40.2695V31.1987Z" fill="url(#paint7_linear_2_307)"/>
</g>
<mask id="mask8_2_307" style="mask-type:luminance" maskUnits="userSpaceOnUse" x="11" y="31" width="16" height="25">
<path d="M15.3412 55.6198C12.7746 53.0071 11.207 49.4108 11.207 45.461C11.207 38.3298 16.3402 32.3975 23.1179 31.168C25.4539 33.8114 26.8832 37.2694 26.8832 41.0809C26.8832 48.1505 21.9652 54.0829 15.3412 55.6198Z" fill="white"/>
</mask>
<g mask="url(#mask8_2_307)">
<path d="M26.8832 31.1523H11.207V55.6041H26.8832V31.1523Z" fill="url(#paint8_linear_2_307)"/>
</g>
<path fill-rule="evenodd" clip-rule="evenodd" d="M25.1619 57.5101C19.5369 55.9579 15.3873 50.8093 15.3873 44.6771C15.3873 43.6013 15.5103 42.5562 15.7562 41.5573C16.3402 39.0983 17.6158 36.9159 19.3525 35.1946C16.8781 36.7468 14.9878 39.1597 14.1425 42.0337C13.8197 43.1095 13.6507 44.2622 13.6507 45.4456C13.666 51.9312 18.7685 57.2181 25.1619 57.5101Z" fill="white"/>
<mask id="mask9_2_307" style="mask-type:luminance" maskUnits="userSpaceOnUse" x="27" y="15" width="28" height="43">
<path d="M51.6424 45.5532C49.4139 50.8862 43.7735 59.7079 36.5041 56.2346C32.6158 54.3749 33.8607 50.6249 32.9232 47.2131C30.2951 37.6075 25.1619 34.0112 27.8053 24.9436C33.123 6.79306 63.9374 16.1834 51.6424 45.5532Z" fill="white"/>
</mask>
<g mask="url(#mask9_2_307)">
<path d="M63.9374 6.79297H25.1619V59.7078H63.9374V6.79297Z" fill="url(#paint9_linear_2_307)"/>
</g>
<mask id="mask10_2_307" style="mask-type:luminance" maskUnits="userSpaceOnUse" x="35" y="28" width="20" height="30">
<path d="M51.6424 45.5531C49.4139 50.886 43.7735 59.7077 36.5041 56.2344C36.2736 56.1268 36.0738 56.0039 35.874 55.8809C41.8217 55.9885 56.0071 42.5715 54.0553 28.2017C55.0389 32.8123 54.5471 38.6217 51.6424 45.5531Z" fill="white"/>
</mask>
<g mask="url(#mask10_2_307)">
<path d="M55.9917 28.2017H35.8586V59.7077H55.9917V28.2017Z" fill="url(#paint10_linear_2_307)"/>
</g>
<mask id="mask11_2_307" style="mask-type:luminance" maskUnits="userSpaceOnUse" x="27" y="15" width="18" height="27">
<path d="M31.0328 41.8646C28.4816 35.8554 25.6998 32.1054 27.8053 24.9281C29.9416 17.628 36.2121 14.7847 42.1444 15.922C43.4508 18.4271 44.1731 21.2857 44.1731 24.3134C44.1885 32.6279 38.6403 39.6515 31.0328 41.8646Z" fill="white"/>
</mask>
<g mask="url(#mask11_2_307)">
<path d="M44.1885 14.7852H25.7152V41.865H44.1885V14.7852Z" fill="url(#paint11_linear_2_307)"/>
</g>
<path fill-rule="evenodd" clip-rule="evenodd" d="M35.3975 43.9552C35.3975 43.9552 29.3422 36.486 29.9109 28.3251C30.3105 22.6694 34.8443 22.0547 32.9846 28.6786C32.0625 31.9522 33.0154 37.1776 35.3975 43.9552Z" fill="white"/>
<path d="M82.9572 20.36V28.92H93.7972V33.22H82.9572V45H77.5572V16.08H95.7972V20.36H82.9572ZM102.492 28.04C103.132 26.8133 103.892 25.8533 104.772 25.16C105.652 24.4533 106.692 24.1 107.892 24.1C108.839 24.1 109.599 24.3067 110.172 24.72L109.852 28.42C109.785 28.66 109.685 28.8333 109.552 28.94C109.432 29.0333 109.265 29.08 109.052 29.08C108.852 29.08 108.552 29.0467 108.152 28.98C107.765 28.9133 107.385 28.88 107.012 28.88C106.465 28.88 105.979 28.96 105.552 29.12C105.125 29.28 104.739 29.5133 104.392 29.82C104.059 30.1133 103.759 30.4733 103.492 30.9C103.239 31.3267 102.999 31.8133 102.772 32.36V45H97.8319V24.48H100.732C101.239 24.48 101.592 24.5733 101.792 24.76C101.992 24.9333 102.125 25.2533 102.192 25.72L102.492 28.04ZM130.434 24.48V45H127.414C126.76 45 126.347 44.7 126.174 44.1L125.834 42.46C124.994 43.3133 124.067 44.0067 123.054 44.54C122.04 45.06 120.847 45.32 119.474 45.32C118.354 45.32 117.36 45.1333 116.494 44.76C115.64 44.3733 114.92 43.8333 114.334 43.14C113.747 42.4467 113.3 41.6267 112.994 40.68C112.7 39.72 112.554 38.6667 112.554 37.52V24.48H117.494V37.52C117.494 38.7733 117.78 39.7467 118.354 40.44C118.94 41.12 119.814 41.46 120.974 41.46C121.827 41.46 122.627 41.2733 123.374 40.9C124.12 40.5133 124.827 39.9867 125.494 39.32V24.48H130.434ZM140.452 24.48V45H135.492V24.48H140.452ZM141.132 18.5C141.132 18.9267 141.045 19.3267 140.872 19.7C140.699 20.0733 140.465 20.4 140.172 20.68C139.892 20.96 139.559 21.1867 139.172 21.36C138.785 21.52 138.372 21.6 137.932 21.6C137.505 21.6 137.099 21.52 136.712 21.36C136.339 21.1867 136.012 20.96 135.732 20.68C135.452 20.4 135.225 20.0733 135.052 19.7C134.892 19.3267 134.812 18.9267 134.812 18.5C134.812 18.06 134.892 17.6467 135.052 17.26C135.225 16.8733 135.452 16.54 135.732 16.26C136.012 15.98 136.339 15.76 136.712 15.6C137.099 15.4267 137.505 15.34 137.932 15.34C138.372 15.34 138.785 15.4267 139.172 15.6C139.559 15.76 139.892 15.98 140.172 16.26C140.465 16.54 140.699 16.8733 140.872 17.26C141.045 17.6467 141.132 18.06 141.132 18.5ZM152.328 45.32C150.542 45.32 149.168 44.82 148.208 43.82C147.262 42.8067 146.788 41.4133 146.788 39.64V28.18H144.688C144.422 28.18 144.195 28.0933 144.008 27.92C143.822 27.7467 143.728 27.4867 143.728 27.14V25.18L147.028 24.64L148.068 19.04C148.135 18.7733 148.262 18.5667 148.448 18.42C148.635 18.2733 148.875 18.2 149.168 18.2H151.728V24.66H157.208V28.18H151.728V39.3C151.728 39.94 151.882 40.44 152.188 40.8C152.508 41.16 152.942 41.34 153.488 41.34C153.795 41.34 154.048 41.3067 154.248 41.24C154.462 41.16 154.642 41.08 154.788 41C154.948 40.92 155.088 40.8467 155.208 40.78C155.328 40.7 155.448 40.66 155.568 40.66C155.715 40.66 155.835 40.7 155.928 40.78C156.022 40.8467 156.122 40.9533 156.228 41.1L157.708 43.5C156.988 44.1 156.162 44.5533 155.228 44.86C154.295 45.1667 153.328 45.32 152.328 45.32ZM181.698 40.8C182.698 40.8 183.538 40.68 184.218 40.44C184.898 40.2 185.438 39.88 185.838 39.48C186.251 39.08 186.544 38.6133 186.718 38.08C186.904 37.5467 186.998 36.98 186.998 36.38C186.998 35.7533 186.898 35.1933 186.698 34.7C186.498 34.1933 186.184 33.7667 185.758 33.42C185.331 33.06 184.778 32.7867 184.098 32.6C183.431 32.4133 182.624 32.32 181.678 32.32H176.258V40.8H181.698ZM176.258 20.24V28.6H180.538C182.378 28.6 183.764 28.2667 184.698 27.6C185.644 26.9333 186.118 25.8733 186.118 24.42C186.118 22.9133 185.691 21.84 184.838 21.2C183.984 20.56 182.651 20.24 180.838 20.24H176.258ZM180.838 16.08C182.731 16.08 184.351 16.26 185.698 16.62C187.044 16.98 188.144 17.4933 188.998 18.16C189.864 18.8267 190.498 19.6333 190.898 20.58C191.298 21.5267 191.498 22.5933 191.498 23.78C191.498 24.46 191.398 25.1133 191.198 25.74C190.998 26.3533 190.684 26.9333 190.258 27.48C189.844 28.0133 189.311 28.5 188.658 28.94C188.018 29.38 187.251 29.7533 186.358 30.06C190.331 30.9533 192.318 33.1 192.318 36.5C192.318 37.7267 192.084 38.86 191.618 39.9C191.151 40.94 190.471 41.84 189.578 42.6C188.684 43.3467 187.584 43.9333 186.278 44.36C184.971 44.7867 183.478 45 181.798 45H170.878V16.08H180.838ZM213.754 24.48V45H210.734C210.081 45 209.667 44.7 209.494 44.1L209.154 42.46C208.314 43.3133 207.387 44.0067 206.374 44.54C205.361 45.06 204.167 45.32 202.794 45.32C201.674 45.32 200.681 45.1333 199.814 44.76C198.961 44.3733 198.241 43.8333 197.654 43.14C197.067 42.4467 196.621 41.6267 196.314 40.68C196.021 39.72 195.874 38.6667 195.874 37.52V24.48H200.814V37.52C200.814 38.7733 201.101 39.7467 201.674 40.44C202.261 41.12 203.134 41.46 204.294 41.46C205.147 41.46 205.947 41.2733 206.694 40.9C207.441 40.5133 208.147 39.9867 208.814 39.32V24.48H213.754ZM223.312 28.04C223.952 26.8133 224.712 25.8533 225.592 25.16C226.472 24.4533 227.512 24.1 228.712 24.1C229.659 24.1 230.419 24.3067 230.992 24.72L230.672 28.42C230.606 28.66 230.506 28.8333 230.372 28.94C230.252 29.0333 230.086 29.08 229.872 29.08C229.672 29.08 229.372 29.0467 228.972 28.98C228.586 28.9133 228.206 28.88 227.832 28.88C227.286 28.88 226.799 28.96 226.372 29.12C225.946 29.28 225.559 29.5133 225.212 29.82C224.879 30.1133 224.579 30.4733 224.312 30.9C224.059 31.3267 223.819 31.8133 223.592 32.36V45H218.652V24.48H221.552C222.059 24.48 222.412 24.5733 222.612 24.76C222.812 24.9333 222.946 25.2533 223.012 25.72L223.312 28.04ZM246.016 28.48C245.883 28.6933 245.743 28.8467 245.596 28.94C245.449 29.02 245.263 29.06 245.036 29.06C244.796 29.06 244.536 28.9933 244.256 28.86C243.989 28.7267 243.676 28.58 243.316 28.42C242.956 28.2467 242.543 28.0933 242.076 27.96C241.623 27.8267 241.083 27.76 240.456 27.76C239.483 27.76 238.716 27.9667 238.156 28.38C237.609 28.7933 237.336 29.3333 237.336 30C237.336 30.44 237.476 30.8133 237.756 31.12C238.049 31.4133 238.429 31.6733 238.896 31.9C239.376 32.1267 239.916 32.3333 240.516 32.52C241.116 32.6933 241.723 32.8867 242.336 33.1C242.963 33.3133 243.576 33.56 244.176 33.84C244.776 34.1067 245.309 34.4533 245.776 34.88C246.256 35.2933 246.636 35.7933 246.916 36.38C247.209 36.9667 247.356 37.6733 247.356 38.5C247.356 39.4867 247.176 40.4 246.816 41.24C246.469 42.0667 245.949 42.7867 245.256 43.4C244.563 44 243.703 44.4733 242.676 44.82C241.663 45.1533 240.489 45.32 239.156 45.32C238.449 45.32 237.756 45.2533 237.076 45.12C236.409 45 235.763 44.8267 235.136 44.6C234.523 44.3733 233.949 44.1067 233.416 43.8C232.896 43.4933 232.436 43.16 232.036 42.8L233.176 40.92C233.323 40.6933 233.496 40.52 233.696 40.4C233.896 40.28 234.149 40.22 234.456 40.22C234.763 40.22 235.049 40.3067 235.316 40.48C235.596 40.6533 235.916 40.84 236.276 41.04C236.636 41.24 237.056 41.4267 237.536 41.6C238.029 41.7733 238.649 41.86 239.396 41.86C239.983 41.86 240.483 41.7933 240.896 41.66C241.323 41.5133 241.669 41.3267 241.936 41.1C242.216 40.8733 242.416 40.6133 242.536 40.32C242.669 40.0133 242.736 39.7 242.736 39.38C242.736 38.9 242.589 38.5067 242.296 38.2C242.016 37.8933 241.636 37.6267 241.156 37.4C240.689 37.1733 240.149 36.9733 239.536 36.8C238.936 36.6133 238.316 36.4133 237.676 36.2C237.049 35.9867 236.429 35.74 235.816 35.46C235.216 35.1667 234.676 34.8 234.196 34.36C233.729 33.92 233.349 33.38 233.056 32.74C232.776 32.1 232.636 31.3267 232.636 30.42C232.636 29.58 232.803 28.78 233.136 28.02C233.469 27.26 233.956 26.6 234.596 26.04C235.249 25.4667 236.056 25.0133 237.016 24.68C237.989 24.3333 239.109 24.16 240.376 24.16C241.789 24.16 243.076 24.3933 244.236 24.86C245.396 25.3267 246.363 25.94 247.136 26.7L246.016 28.48ZM257.914 45.32C256.127 45.32 254.754 44.82 253.794 43.82C252.847 42.8067 252.374 41.4133 252.374 39.64V28.18H250.274C250.007 28.18 249.781 28.0933 249.594 27.92C249.407 27.7467 249.314 27.4867 249.314 27.14V25.18L252.614 24.64L253.654 19.04C253.721 18.7733 253.847 18.5667 254.034 18.42C254.221 18.2733 254.461 18.2 254.754 18.2H257.314V24.66H262.794V28.18H257.314V39.3C257.314 39.94 257.467 40.44 257.774 40.8C258.094 41.16 258.527 41.34 259.074 41.34C259.381 41.34 259.634 41.3067 259.834 41.24C260.047 41.16 260.227 41.08 260.374 41C260.534 40.92 260.674 40.8467 260.794 40.78C260.914 40.7 261.034 40.66 261.154 40.66C261.301 40.66 261.421 40.7 261.514 40.78C261.607 40.8467 261.707 40.9533 261.814 41.1L263.294 43.5C262.574 44.1 261.747 44.5533 260.814 44.86C259.881 45.1667 258.914 45.32 257.914 45.32Z" fill="white"/>
<defs>
<linearGradient id="paint0_linear_2_307" x1="21.6924" y1="30.8708" x2="-2.98297" y2="30.8708" gradientUnits="userSpaceOnUse">
<stop stop-color="#FF0000"/>
<stop offset="1" stop-color="#F38288"/>
</linearGradient>
<linearGradient id="paint1_linear_2_307" x1="21.7535" y1="29.2315" x2="2.15546" y2="29.2315" gradientUnits="userSpaceOnUse">
<stop stop-color="#FF0000"/>
<stop offset="1" stop-color="#F38288"/>
</linearGradient>
<linearGradient id="paint2_linear_2_307" x1="25.5397" y1="13.9498" x2="41.9465" y2="-2.457" gradientUnits="userSpaceOnUse">
<stop stop-color="#4BBC39"/>
<stop offset="1" stop-color="#BEDE19"/>
</linearGradient>
<linearGradient id="paint3_linear_2_307" x1="27.3192" y1="19.258" x2="43.8919" y2="2.6853" gradientUnits="userSpaceOnUse">
<stop stop-color="#3AA34E"/>
<stop offset="1" stop-color="#BEDE19"/>
</linearGradient>
<linearGradient id="paint4_linear_2_307" x1="20.3713" y1="14.5706" x2="3.55301" y2="14.5706" gradientUnits="userSpaceOnUse">
<stop stop-color="#4BBC39"/>
<stop offset="1" stop-color="#BEDE19"/>
</linearGradient>
<linearGradient id="paint5_linear_2_307" x1="24.2613" y1="16.6901" x2="4.31063" y2="11.3444" gradientUnits="userSpaceOnUse">
<stop stop-color="#3AA34E"/>
<stop offset="1" stop-color="#BEDE19"/>
</linearGradient>
<linearGradient id="paint6_linear_2_307" x1="12.5431" y1="45.4558" x2="33.7789" y2="45.4558" gradientUnits="userSpaceOnUse">
<stop stop-color="#FFBE04"/>
<stop offset="1" stop-color="#FF7F00"/>
</linearGradient>
<linearGradient id="paint7_linear_2_307" x1="12.3805" y1="45.5967" x2="29.4365" y2="45.5967" gradientUnits="userSpaceOnUse">
<stop stop-color="#FFBE04"/>
<stop offset="1" stop-color="#FF7F00"/>
</linearGradient>
<linearGradient id="paint8_linear_2_307" x1="18.6455" y1="43.3886" x2="33.579" y2="43.3886" gradientUnits="userSpaceOnUse">
<stop stop-color="#FFBE04"/>
<stop offset="1" stop-color="#FF7F00"/>
</linearGradient>
<linearGradient id="paint9_linear_2_307" x1="52.2995" y1="33.2505" x2="29.0926" y2="33.2505" gradientUnits="userSpaceOnUse">
<stop stop-color="#016737"/>
<stop offset="1" stop-color="#4BBC39"/>
</linearGradient>
<linearGradient id="paint10_linear_2_307" x1="47.8086" y1="43.9586" x2="32.0878" y2="43.9586" gradientUnits="userSpaceOnUse">
<stop stop-color="#016737"/>
<stop offset="1" stop-color="#4BBC39"/>
</linearGradient>
<linearGradient id="paint11_linear_2_307" x1="52.4699" y1="28.3283" x2="31.9035" y2="28.3283" gradientUnits="userSpaceOnUse">
<stop stop-color="#016737"/>
<stop offset="1" stop-color="#4BBC39"/>
</linearGradient>
</defs>
</svg>
